<svg width="20" height="20" viewBox="0 0 20 20" fill="none" xmlns="http://www.w3.org/2000/svg">
<path d="M14.3594 12.0156H17.7344C17.9219 11.1406 18.0156 10.4688 18.0156 10C18.0156 9.53125 17.9219 8.85938 17.7344 7.98438H14.3594C14.4531 8.64062 14.5 9.3125 14.5 10C14.5 10.6875 14.4531 11.3594 14.3594 12.0156ZM12.5781 17.5469C13.3594 17.2969 14.1719 16.8281 15.0156 16.1406C15.8594 15.4219 16.5 14.7031 16.9375 13.9844H13.9844C13.6719 15.2344 13.2031 16.4219 12.5781 17.5469ZM12.3438 12.0156C12.4375 11.3594 12.4844 10.6875 12.4844 10C12.4844 9.3125 12.4375 8.64062 12.3438 7.98438H7.65625C7.5625 8.64062 7.51562 9.3125 7.51562 10C7.51562 10.6875 7.5625 11.3594 7.65625 12.0156H12.3438ZM10 17.9688C10.875 16.6875 11.5156 15.3594 11.9219 13.9844H8.07812C8.48438 15.3594 9.125 16.6875 10 17.9688ZM6.01562 6.01562C6.39062 4.67187 6.85938 3.48438 7.42188 2.45312C6.64062 2.70312 5.8125 3.1875 4.9375 3.90625C4.09375 4.59375 3.46875 5.29688 3.0625 6.01562H6.01562ZM3.0625 13.9844C3.46875 14.7031 4.09375 15.4219 4.9375 16.1406C5.8125 16.8281 6.64062 17.2969 7.42188 17.5469C6.79688 16.4219 6.32812 15.2344 6.01562 13.9844H3.0625ZM2.26562 12.0156H5.64062C5.54688 11.3594 5.5 10.6875 5.5 10C5.5 9.3125 5.54688 8.64062 5.64062 7.98438H2.26562C2.07812 8.85938 1.98438 9.53125 1.98438 10C1.98438 10.4688 2.07812 11.1406 2.26562 12.0156ZM10 2.03125C9.125 3.3125 8.48438 4.64063 8.07812 6.01562H11.9219C11.5156 4.64063 10.875 3.3125 10 2.03125ZM16.9375 6.01562C16.5 5.29688 15.8594 4.59375 15.0156 3.90625C14.1719 3.1875 13.3594 2.70312 12.5781 2.45312C13.1406 3.48438 13.6094 4.67187 13.9844 6.01562H16.9375ZM2.92188 2.96875C4.89062 1 7.25 0.015625 10 0.015625C12.75 0.015625 15.0938 1 17.0312 2.96875C19 4.90625 19.9844 7.25 19.9844 10C19.9844 12.75 19 15.1094 17.0312 17.0781C15.0938 19.0156 12.75 19.9844 10 19.9844C7.25 19.9844 4.89062 19.0156 2.92188 17.0781C0.984375 15.1094 0.015625 12.75 0.015625 10C0.015625 7.25 0.984375 4.90625 2.92188 2.96875Z" fill="white"/>
</svg>
