<svg width="20" height="18" viewBox="0 0 20 18" fill="none" xmlns="http://www.w3.org/2000/svg">
<path d="M10.9844 5.48438V3.51562H9.01562V5.48438H10.9844ZM10.9844 9.98438V8.01562H9.01562V9.98438H10.9844ZM10.9844 14.4844V12.5156H9.01562V14.4844H10.9844ZM19.9844 6.98438C19.4531 6.98438 18.9844 7.1875 18.5781 7.59375C18.2031 8 18.0156 8.46875 18.0156 9C18.0156 9.53125 18.2031 10 18.5781 10.4062C18.9844 10.8125 19.4531 11.0156 19.9844 11.0156V15C19.9844 15.5312 19.7812 16 19.375 16.4062C19 16.8125 18.5469 17.0156 18.0156 17.0156H1.98438C1.45312 17.0156 0.984375 16.8125 0.578125 16.4062C0.203125 16 0.015625 15.5312 0.015625 15V11.0156C0.578125 11.0156 1.04688 10.8281 1.42188 10.4531C1.79688 10.0469 1.98438 9.5625 1.98438 9C1.98438 8.46875 1.78125 8 1.375 7.59375C1 7.1875 0.546875 6.98438 0.015625 6.98438V3C0.015625 2.4375 0.203125 1.96875 0.578125 1.59375C0.984375 1.1875 1.45312 0.984375 1.98438 0.984375H18.0156C18.5781 0.984375 19.0469 1.1875 19.4219 1.59375C19.7969 1.96875 19.9844 2.4375 19.9844 3V6.98438Z" fill="white"/>
</svg>
